<?xml version="1.0" standalone="no"?>
<!DOCTYPE svg PUBLIC "-//W3C//DTD SVG 20010904//EN"
 "http://www.w3.org/TR/2001/REC-SVG-20010904/DTD/svg10.dtd">
<svg version="1.0" xmlns="http://www.w3.org/2000/svg"
 width="136.000000pt" height="136.000000pt" viewBox="0 0 136.000000 136.000000"
 preserveAspectRatio="xMidYMid meet">
<metadata>
Created by potrace 1.11, written by Peter Selinger 2001-2013
</metadata>
<g transform="translate(0.000000,136.000000) scale(0.100000,-0.100000)"
fill="#000000" stroke="none">
<path d="M515 1344 c-109 -21 -242 -92 -320 -170 -55 -55 -64 -69 -60 -92 4
-21 3 -23 -3 -7 -9 19 -9 19 -20 0 -5 -11 -9 -32 -9 -47 2 -21 5 -24 19 -17
11 6 18 4 22 -7 4 -11 2 -15 -7 -11 -8 3 -13 -3 -14 -14 -1 -10 4 -19 11 -19
8 0 21 -11 30 -25 15 -22 15 -25 -2 -34 -9 -5 -16 -13 -15 -18 1 -4 -5 -7 -14
-5 -11 2 -14 -1 -10 -12 4 -9 2 -16 -3 -16 -6 0 -10 7 -10 16 0 12 -7 15 -25
12 -13 -3 -22 -2 -20 3 3 4 1 10 -5 14 -16 10 -12 38 5 32 11 -5 13 0 8 24 -4
21 -1 34 8 41 12 8 12 9 0 6 -17 -5 -54 -96 -47 -115 3 -8 2 -11 -3 -8 -26 15
-34 -202 -11 -295 17 -74 40 -130 52 -130 6 0 7 7 4 16 -3 8 -2 12 4 9 6 -3
10 -1 10 4 0 6 -5 11 -11 11 -8 0 -9 4 0 13 6 8 8 17 4 20 -3 4 -1 7 5 7 7 0
12 -9 12 -19 0 -11 8 -21 17 -23 15 -3 15 -4 -1 -20 -10 -10 -13 -18 -7 -18 6
0 11 -7 11 -15 0 -17 -16 -20 -25 -5 -10 16 -25 12 -19 -5 4 -8 16 -16 28 -16
16 -1 17 -2 4 -6 -16 -4 -14 -10 14 -50 17 -25 49 -64 70 -85 36 -36 41 -38
56 -25 33 29 80 48 85 34 7 -19 -2 -80 -14 -87 -11 -7 52 -53 88 -64 22 -7 23
-2 14 54 -1 3 -6 -2 -11 -10 -9 -13 -10 -13 -9 0 0 8 4 24 9 35 7 15 9 16 9 4
1 -9 8 -22 16 -29 8 -6 14 -15 13 -18 -1 -4 4 -19 12 -34 9 -20 23 -29 49 -34
20 -3 44 -8 54 -11 28 -7 20 9 -38 77 -56 66 -88 121 -100 175 -6 29 -5 29 47
-21 68 -67 104 -84 172 -84 69 0 95 10 145 56 48 42 52 30 16 -42 -27 -53 -58
-145 -51 -152 13 -12 167 47 230 88 187 122 295 319 296 536 0 310 -218 570
-528 630 -89 17 -144 17 -237 -2z m-74 -304 c5 0 9 8 10 18 0 13 3 12 11 -6 8
-15 17 -21 29 -17 10 3 33 7 52 9 18 2 43 8 54 14 15 8 25 7 41 -4 12 -8 22
-12 22 -7 0 4 5 0 11 -9 5 -9 16 -15 23 -12 35 13 135 -34 121 -57 -4 -5 -2
-9 3 -9 13 0 2 -52 -16 -73 -8 -9 -32 -22 -54 -27 -27 -8 -38 -16 -38 -29 0
-21 26 -31 87 -31 42 0 63 -13 85 -53 11 -21 11 -21 19 -2 5 13 7 3 4 -28 -1
-26 -9 -55 -17 -64 -11 -14 -11 -15 0 -9 11 7 12 -2 8 -40 -3 -27 -10 -67 -15
-88 -6 -22 -7 -44 -4 -49 3 -6 2 -7 -4 -4 -12 7 -43 -28 -43 -48 0 -13 -13
-20 -23 -12 -5 3 -37 -30 -37 -38 0 -19 -41 -47 -64 -43 -14 3 -23 1 -20 -4
13 -20 -6 -56 -32 -61 -30 -5 -104 11 -104 24 0 5 -6 6 -13 3 -7 -2 -20 9 -30
26 -10 16 -25 30 -34 30 -13 0 -13 3 -3 15 10 13 9 15 -9 15 -35 0 -65 78 -84
215 -21 151 -27 245 -17 245 8 0 11 18 28 140 5 36 15 76 23 88 14 22 14 22
17 2 2 -11 8 -20 13 -20z m-302 -255 c7 4 8 0 5 -10 -5 -11 0 -18 15 -22 24
-6 28 -21 7 -29 -9 -3 -12 -12 -9 -21 4 -11 2 -14 -5 -9 -7 4 -12 1 -12 -8 0
-8 -5 -18 -12 -22 -8 -5 -9 -2 -5 9 8 20 -4 29 -23 17 -9 -6 -18 -3 -27 8 -18
24 -16 35 6 29 17 -4 19 -2 10 22 -9 24 -8 25 6 7 8 -11 15 -26 15 -33 0 -16
9 -16 40 2 14 8 19 14 12 15 -7 0 -24 12 -37 26 -28 30 -33 43 -10 24 8 -6 19
-9 24 -5z m204 -87 c5 -49 3 -56 -11 -51 -10 4 -8 -1 6 -15 28 -28 31 -85 5
-80 -26 5 -42 45 -45 115 -3 46 0 59 9 56 7 -3 13 2 13 12 0 9 -4 13 -10 10
-11 -7 -14 18 -3 29 14 14 31 -21 36 -76z m627 -39 c0 -11 -4 -17 -10 -14 -5
3 -10 13 -10 21 0 8 5 14 10 14 6 0 10 -9 10 -21z m-813 -35 c-3 -3 -12 -4
-19 -1 -8 3 -5 6 6 6 11 1 17 -2 13 -5z m-12 -34 c3 -5 1 -10 -4 -10 -6 0 -11
5 -11 10 0 6 2 10 4 10 3 0 8 -4 11 -10z m805 -20 c0 -5 -5 -10 -11 -10 -5 0
-7 5 -4 10 3 6 8 10 11 10 2 0 4 -4 4 -10z m-792 -78 c6 -18 -15 -14 -22 4 -4
10 -1 14 6 12 6 -2 14 -10 16 -16z"/>
<path d="M423 880 c-13 -5 -23 -18 -23 -30 0 -19 6 -20 95 -20 52 0 95 4 95 8
0 5 -6 16 -12 25 -15 20 -121 32 -155 17z"/>
<path d="M456 789 c2 -4 -4 -10 -13 -13 -15 -6 -15 -8 -3 -16 9 -6 17 -5 21 2
6 9 12 8 23 -1 9 -8 16 -10 16 -5 0 5 5 2 10 -6 8 -13 11 -12 24 5 23 30 15
37 -36 39 -25 0 -44 -2 -42 -5z"/>
<path d="M723 772 c-18 -9 -33 -25 -33 -34 0 -29 11 -47 26 -41 12 4 12 8 2
20 -10 13 -7 14 22 9 19 -3 52 -10 72 -15 51 -12 65 5 35 41 -29 35 -81 43
-124 20z m47 -2 c0 -5 -4 -10 -10 -10 -5 0 -10 -7 -10 -15 0 -13 -3 -14 -14
-3 -13 11 -13 15 2 26 19 15 32 16 32 2z"/>
<path d="M671 732 c-1 -24 24 -92 34 -92 3 0 1 9 -5 19 -5 11 -14 37 -19 58
-6 24 -9 30 -10 15z"/>
<path d="M710 611 c0 -5 5 -13 10 -16 6 -3 10 -2 10 4 0 5 -4 13 -10 16 -5 3
-10 2 -10 -4z"/>
<path d="M527 531 c-45 -14 -59 -32 -37 -46 6 -4 7 -11 4 -17 -5 -7 -2 -9 8
-5 9 3 24 0 34 -8 31 -21 120 -44 155 -40 17 3 39 11 49 20 9 8 22 15 30 15
19 0 38 31 32 52 -5 20 -60 48 -94 48 -10 0 -30 -11 -43 -25 -14 -13 -25 -21
-25 -17 0 4 -15 15 -33 23 -29 13 -39 13 -80 0z m192 -56 c7 -19 -44 -36 -97
-32 -38 3 -59 10 -75 26 l-22 22 95 -3 c52 -2 97 -8 99 -13z"/>
<path d="M603 382 c-19 -6 -20 -9 -9 -24 19 -26 69 -33 89 -13 29 28 21 45
-20 44 -21 -1 -48 -4 -60 -7z"/>
<path d="M296 229 c-15 -12 -25 -23 -22 -26 2 -3 17 7 33 21 33 31 26 34 -11
5z"/>
</g>
</svg>
